<svg width="932" height="629" viewBox="0 0 932 629" fill="none" xmlns="http://www.w3.org/2000/svg">
<g clip-path="url(#clip0)">
<path d="M191.139 629H82.3398C80.3653 629 78.7856 627.421 78.7856 625.447V623.474C78.7856 621.5 80.3653 619.921 82.3398 619.921H191.139C193.114 619.921 194.693 621.5 194.693 623.474V625.447C194.496 627.421 193.114 629 191.139 629Z" fill="#ADBEC4"/>
<path d="M880.464 629H850.647C848.673 629 847.093 627.421 847.093 625.447V623.474C847.093 621.5 848.673 619.921 850.647 619.921H880.464C882.438 619.921 884.018 621.5 884.018 623.474V625.447C884.018 627.421 882.438 629 880.464 629Z" fill="#ADBEC4"/>
<path d="M395.903 629H287.103C285.129 629 283.549 627.421 283.549 625.447V623.474C283.549 621.5 285.129 619.921 287.103 619.921H395.903C397.877 619.921 399.457 621.5 399.457 623.474V625.447C399.259 627.421 397.877 629 395.903 629Z" fill="#ADBEC4"/>
<path d="M555.646 629H446.847C444.872 629 443.292 627.421 443.292 625.447V623.474C443.292 621.5 444.872 619.921 446.847 619.921H555.646C557.62 619.921 559.2 621.5 559.2 623.474V625.447C559.003 627.421 557.62 629 555.646 629Z" fill="#ADBEC4"/>
<path d="M751.326 629H603.036C601.061 629 599.481 627.421 599.481 625.447V623.474C599.481 621.5 601.061 619.921 603.036 619.921H751.326C753.301 619.921 754.881 621.5 754.881 623.474V625.447C754.683 627.421 753.104 629 751.326 629Z" fill="#ADBEC4"/>
<path d="M227.669 134.997C227.669 134.997 216.216 127.103 199.432 133.221C182.648 139.142 178.897 161.839 183.043 180.194C187.19 198.549 164.087 261.31 164.087 261.31C164.087 261.31 176.132 278.284 218.191 271.771C218.191 271.771 249.586 214.93 247.217 173.878C244.65 133.024 227.669 134.997 227.669 134.997Z" fill="#0E3944"/>
<path d="M240.898 205.654C256.695 200.522 266.37 213.745 275.453 238.219C284.536 262.692 287.498 265.06 287.498 265.06L322.448 287.56L319.486 300.586C319.486 300.586 286.314 287.56 278.218 279.27C270.122 270.981 247.019 229.14 247.019 229.14L240.898 205.654Z" fill="#EF6E4B"/>
<path d="M163.89 363.742C163.89 363.742 156.979 398.479 158.164 450.583C158.164 450.583 131.112 490.45 153.425 603.935H165.075C165.075 603.935 174.553 507.226 181.858 481.174C189.164 454.925 216.216 447.03 217.598 367.295L163.89 363.742Z" fill="#FF8B66"/>
<path d="M110.379 465.78C103.665 443.477 86.0915 405.978 41.2686 355.058C41.2686 355.058 38.5042 353.677 34.95 355.848C31.1983 358.216 31.1983 360.979 31.1983 360.979C31.1983 360.979 53.7084 409.926 67.9254 445.846C72.6644 457.885 84.3144 465.78 97.3466 465.78H110.379Z" fill="#FF8B66"/>
<path d="M191.929 509.003C191.929 509.003 192.126 525.778 181.069 525.976C165.667 526.371 165.075 509.595 147.501 510.187C129.927 510.779 93.7924 515.121 82.3398 487.687C76.4161 473.477 84.5118 455.319 65.3584 441.701C46.2051 428.083 55.4856 412.689 65.3584 404.399C75.2313 396.11 61.0144 387.229 71.4796 383.084C73.8491 382.097 76.4161 382.295 78.5881 382.887C79.9703 383.281 81.1551 384.071 82.3398 384.86C87.8686 388.413 91.6203 394.729 91.6203 394.729C120.647 315.191 172.38 304.73 172.38 304.73L223.522 322.296C224.707 446.043 191.929 509.003 191.929 509.003Z" fill="#164353"/>
<path d="M240.898 205.654C240.898 205.654 229.051 209.601 212.069 207.035C195.088 204.469 189.559 193.812 177.712 200.719C159.743 210.982 168.234 246.508 172.775 264.863C174.355 271.771 176.527 289.731 172.578 304.73C172.578 304.73 196.47 323.283 223.719 322.296L238.529 289.928C238.331 289.928 270.714 251.245 240.898 205.654Z" fill="#CFD8DC"/>
<path d="M210.49 176.049C210.49 176.049 212.464 192.825 206.343 208.022C206.343 208.022 215.229 221.048 223.72 212.561C223.72 212.561 224.509 197.167 233.987 179.799C240.306 168.154 210.49 176.049 210.49 176.049Z" fill="#EF6E4B"/>
<path d="M197.063 176.444C197.063 176.444 189.559 171.707 190.349 179.009C191.336 187.496 199.63 189.075 200.419 186.114C201.407 183.351 197.063 176.444 197.063 176.444Z" fill="#FF8B66"/>
<path d="M239.911 167.365C239.911 167.365 244.65 159.865 247.019 166.773C249.784 174.865 243.07 179.799 240.898 177.628C238.726 175.259 239.911 167.365 239.911 167.365Z" fill="#FF8B66"/>
<path d="M224.312 201.706C210.687 204.667 201.209 197.562 195.286 171.115C192.126 157.497 197.26 147.431 212.464 144.076C227.669 140.721 235.962 147.628 238.924 161.247C245.44 189.864 238.331 198.548 224.312 201.706Z" fill="#FF8B66"/>
<path d="M236.554 171.904C237.147 173.286 236.159 174.865 234.58 175.457C233 176.049 231.223 175.654 230.631 174.273C230.038 172.891 231.025 171.312 232.605 170.72C234.382 169.931 236.159 170.523 236.554 171.904Z" fill="#DB614D"/>
<path d="M208.91 178.812C209.108 180.193 207.923 181.575 206.146 181.772C204.369 181.97 202.789 181.18 202.592 179.799C202.394 178.417 203.579 177.036 205.356 176.838C207.133 176.444 208.713 177.43 208.91 178.812Z" fill="#DB614D"/>
<path d="M227.274 159.47C227.076 159.47 227.076 159.47 226.879 159.273C224.509 157.694 221.35 158.483 221.153 158.483C220.758 158.681 220.363 158.286 220.363 157.891C220.363 157.497 220.56 157.102 220.955 157.102C221.153 157.102 224.904 156.115 227.669 158.089C228.064 158.286 228.064 158.681 227.866 159.076C227.669 159.273 227.471 159.47 227.274 159.47Z" fill="#0E3944"/>
<path d="M201.604 165.194C201.407 165.194 201.407 165.194 201.209 164.996C200.814 164.799 200.814 164.404 201.012 164.01C202.789 161.049 206.541 160.26 206.738 160.26C207.133 160.26 207.528 160.457 207.528 160.852C207.528 161.247 207.33 161.641 206.936 161.641C206.936 161.641 203.579 162.233 202.197 164.602C202.197 164.996 201.999 165.194 201.604 165.194Z" fill="#0E3944"/>
<path d="M227.866 166.97C228.261 168.746 227.866 170.128 226.879 170.325C225.892 170.523 224.904 169.338 224.509 167.562C224.114 165.786 224.509 164.404 225.497 164.207C226.286 164.01 227.471 165.194 227.866 166.97Z" fill="#1A4850"/>
<path d="M208.91 170.917C209.305 172.694 208.91 174.075 207.923 174.273C206.936 174.47 205.948 173.286 205.553 171.51C205.158 169.733 205.553 168.352 206.541 168.154C207.528 168.154 208.515 169.339 208.91 170.917Z" fill="#1A4850"/>
<path d="M215.031 186.904C215.031 186.904 223.719 186.114 227.471 182.957C227.471 182.957 226.484 189.667 221.745 190.259C217.006 190.654 215.031 186.904 215.031 186.904Z" fill="#1A4850"/>
<path d="M223.127 167.167C223.127 167.167 223.522 162.825 225.102 162.628C226.879 162.628 228.853 165.786 228.853 165.786L231.025 164.01L228.656 164.799C228.656 164.799 226.484 161.444 224.904 161.641C222.535 162.233 223.127 167.167 223.127 167.167Z" fill="#1A4850"/>
<path d="M210.095 170.523C210.095 170.523 207.923 166.576 206.343 167.365C204.764 167.957 204.369 171.904 204.369 171.904L201.604 171.115L204.171 170.917C204.171 170.917 204.566 166.97 206.146 166.575C208.318 165.983 210.095 170.523 210.095 170.523Z" fill="#1A4850"/>
<path d="M219.375 179.009L218.586 177.628C219.77 177.036 219.77 176.246 219.77 175.654C219.573 174.865 218.98 174.273 218.388 174.273C218.191 174.273 217.796 174.47 217.796 175.062L216.414 174.47C217.006 172.891 218.191 172.694 218.586 172.891C219.77 172.891 220.955 174.075 221.152 175.457C221.547 176.838 220.955 178.22 219.375 179.009Z" fill="#DB614D"/>
<path d="M198.05 181.378C198.05 181.378 193.903 165.983 196.273 155.128C196.273 155.128 208.12 138.747 230.828 146.839C230.828 146.839 237.542 157.694 240.898 172.891C240.898 172.891 241.688 167.365 239.516 155.326C237.344 143.089 226.484 135.589 211.675 137.958C196.865 140.326 181.069 155.128 198.05 181.378Z" fill="#0E3944"/>
<path d="M221.942 143.286C221.942 143.286 222.93 147.234 218.98 157.694C218.98 157.694 216.216 154.734 212.859 157.694C209.503 160.655 202.986 159.668 200.617 161.247C198.247 162.826 198.247 166.378 198.247 166.378C198.247 166.378 196.273 161.839 198.247 156.51C198.247 156.51 193.903 162.233 194.496 169.141C194.496 169.141 188.572 168.154 188.769 158.286C188.967 148.418 203.184 132.234 218.98 133.418C234.777 134.602 238.529 159.47 238.529 159.47C238.529 159.47 237.147 158.286 234.777 158.878C234.777 158.878 234.382 153.549 230.828 146.839C230.828 146.839 232.408 151.576 230.828 156.905C230.828 156.905 226.484 154.536 222.93 155.326C222.93 155.128 225.102 150.984 221.942 143.286Z" fill="#0E3944"/>
<path d="M173.565 203.877C181.266 197.759 187.19 205.456 188.769 216.114C190.152 226.772 176.33 289.731 165.469 287.56C161.323 286.573 159.546 270.192 159.546 270.192C159.546 270.192 163.692 252.429 166.457 225.785C167.839 213.548 169.419 207.035 173.565 203.877Z" fill="#FF8B66"/>
<path d="M151.055 278.678C140.59 268.81 122.029 236.048 117.29 219.272L125.188 216.114C125.188 216.114 148.883 250.061 159.743 258.547C170.603 267.034 174.355 276.705 169.616 284.797C164.68 292.889 153.227 280.849 151.055 278.678Z" fill="#FF8B66"/>
<path d="M120.647 197.562C120.054 208.219 128.94 210.785 124.991 219.074C124.201 220.851 123.016 221.64 121.634 222.035C119.264 222.824 116.5 222.035 114.723 220.259C110.576 216.114 104.06 211.575 100.703 209.601C96.7542 207.43 98.9263 206.838 98.9263 206.838C98.5313 206.64 98.1364 206.443 97.7415 206.443C94.9771 205.259 92.8051 204.864 94.7796 203.68C96.9517 202.298 105.047 205.259 105.047 205.259C94.5822 198.351 91.8178 199.93 93.5949 198.549C96.1619 196.575 106.035 201.114 106.43 201.312C100.901 196.18 96.9517 194.996 99.1237 194.207C101.296 193.417 112.353 201.312 116.303 204.272C117.29 204.864 117.685 205.456 117.685 205.456C117.882 196.378 120.647 197.562 120.647 197.562Z" fill="#FF8B66"/>
<path d="M116.5 203.877C117.487 204.469 117.882 205.062 117.882 205.062C117.882 205.062 116.105 208.219 118.475 212.364C118.672 212.364 114.131 209.404 116.5 203.877Z" fill="#EF6E4B"/>
<path d="M107.417 210.193C106.43 209.601 101.296 206.64 99.1237 206.838C98.7288 206.64 98.3339 206.443 97.939 206.443C99.5186 204.469 106.43 209.404 107.417 210.193Z" fill="#EF6E4B"/>
<path d="M148.883 369.071C148.883 370.255 147.896 371.242 146.711 371.242C145.526 371.242 144.539 370.255 144.539 369.071C144.539 367.887 145.526 366.9 146.711 366.9C147.896 367.098 148.883 367.887 148.883 369.071Z" fill="#6097B2"/>
<path d="M186.4 383.676C186.4 384.86 185.413 385.847 184.228 385.847C183.043 385.847 182.056 384.86 182.056 383.676C182.056 382.492 183.043 381.505 184.228 381.505C185.413 381.505 186.4 382.492 186.4 383.676Z" fill="#6097B2"/>
<path d="M218.388 391.373C218.388 392.558 217.401 393.544 216.216 393.544C215.031 393.544 214.044 392.558 214.044 391.373C214.044 390.189 215.031 389.202 216.216 389.202C217.401 389.202 218.388 390.189 218.388 391.373Z" fill="#6097B2"/>
<path d="M169.221 341.638C169.221 342.822 168.234 343.809 167.049 343.809C165.864 343.809 164.877 342.822 164.877 341.638C164.877 340.453 165.864 339.467 167.049 339.467C168.234 339.467 169.221 340.453 169.221 341.638Z" fill="#6097B2"/>
<path d="M174.158 363.742C175.357 363.742 176.33 362.77 176.33 361.571C176.33 360.372 175.357 359.4 174.158 359.4C172.958 359.4 171.986 360.372 171.986 361.571C171.986 362.77 172.958 363.742 174.158 363.742Z" fill="#6097B2"/>
<path d="M209.7 373.018C209.7 374.203 208.713 375.189 207.528 375.189C206.343 375.189 205.356 374.203 205.356 373.018C205.356 371.834 206.343 370.848 207.528 370.848C208.713 370.848 209.7 371.834 209.7 373.018Z" fill="#6097B2"/>
<path d="M214.242 338.48C214.242 339.664 213.254 340.651 212.07 340.651C210.885 340.651 209.897 339.664 209.897 338.48C209.897 337.296 210.885 336.309 212.07 336.309C213.254 336.309 214.242 337.296 214.242 338.48Z" fill="#6097B2"/>
<path d="M190.349 333.545C191.549 333.545 192.521 332.573 192.521 331.374C192.521 330.175 191.549 329.203 190.349 329.203C189.15 329.203 188.177 330.175 188.177 331.374C188.177 332.573 189.15 333.545 190.349 333.545Z" fill="#6097B2"/>
<path d="M130.125 410.32C130.125 411.504 129.137 412.491 127.953 412.491C126.768 412.491 125.78 411.504 125.78 410.32C125.78 409.136 126.768 408.149 127.953 408.149C129.137 408.149 130.125 409.136 130.125 410.32Z" fill="#6097B2"/>
<path d="M100.111 401.242C100.111 402.426 99.1237 403.413 97.939 403.413C96.7542 403.413 95.7669 402.426 95.7669 401.242C95.7669 400.057 96.7542 399.071 97.939 399.071C99.1237 399.268 100.111 400.057 100.111 401.242Z" fill="#6097B2"/>
<path d="M82.1424 384.86C81.7475 385.453 81.1551 385.847 80.3653 385.847C79.1805 385.847 78.1932 384.86 78.1932 383.676C78.1932 383.479 78.1932 383.084 78.3907 382.887C79.7729 383.479 80.9576 384.071 82.1424 384.86Z" fill="#6097B2"/>
<path d="M138.813 439.925C140.012 439.925 140.985 438.953 140.985 437.754C140.985 436.555 140.012 435.583 138.813 435.583C137.613 435.583 136.641 436.555 136.641 437.754C136.641 438.953 137.613 439.925 138.813 439.925Z" fill="#6097B2"/>
<path d="M87.0788 467.556C87.0788 468.74 86.0915 469.727 84.9067 469.727C83.722 469.727 82.7347 468.74 82.7347 467.556C82.7347 466.372 83.722 465.385 84.9067 465.385C86.0915 465.385 87.0788 466.372 87.0788 467.556Z" fill="#6097B2"/>
<path d="M107.022 451.569C108.222 451.569 109.194 450.597 109.194 449.398C109.194 448.199 108.222 447.228 107.022 447.228C105.822 447.228 104.85 448.199 104.85 449.398C104.85 450.597 105.822 451.569 107.022 451.569Z" fill="#6097B2"/>
<path d="M74.0466 435.583C75.2462 435.583 76.2186 434.611 76.2186 433.412C76.2186 432.213 75.2462 431.241 74.0466 431.241C72.847 431.241 71.8746 432.213 71.8746 433.412C71.8746 434.611 72.847 435.583 74.0466 435.583Z" fill="#6097B2"/>
<path d="M102.678 496.569C102.678 497.753 101.691 498.739 100.506 498.739C99.3212 498.739 98.3339 497.753 98.3339 496.569C98.3339 495.384 99.3212 494.398 100.506 494.398C101.691 494.398 102.678 495.384 102.678 496.569Z" fill="#6097B2"/>
<path d="M122.819 385.65C122.819 386.834 121.831 387.821 120.647 387.821C119.462 387.821 118.475 386.834 118.475 385.65C118.475 384.465 119.462 383.479 120.647 383.479C121.831 383.676 122.819 384.663 122.819 385.65Z" fill="#6097B2"/>
<path d="M142.959 350.322C142.959 351.506 141.972 352.493 140.787 352.493C139.603 352.493 138.615 351.506 138.615 350.322C138.615 349.137 139.603 348.15 140.787 348.15C141.972 348.15 142.959 349.137 142.959 350.322Z" fill="#6097B2"/>
<path d="M165.864 320.717C165.864 321.901 164.877 322.888 163.692 322.888C162.508 322.888 161.52 321.901 161.52 320.717C161.52 319.533 162.508 318.546 163.692 318.546C165.075 318.546 165.864 319.533 165.864 320.717Z" fill="#6097B2"/>
<path d="M119.462 363.742C119.462 364.926 118.475 365.913 117.29 365.913C116.105 365.913 115.118 364.926 115.118 363.742C115.118 362.558 116.105 361.571 117.29 361.571C118.475 361.571 119.462 362.558 119.462 363.742Z" fill="#6097B2"/>
<path d="M145.131 329.204C145.131 330.388 144.144 331.375 142.959 331.375C141.775 331.375 140.787 330.388 140.787 329.204C140.787 328.019 141.775 327.033 142.959 327.033C144.144 327.033 145.131 328.019 145.131 329.204Z" fill="#6097B2"/>
<path d="M104.85 424.136C104.85 425.32 103.863 426.307 102.678 426.307C101.493 426.307 100.506 425.32 100.506 424.136C100.506 422.952 101.493 421.965 102.678 421.965C103.863 421.965 104.85 422.952 104.85 424.136Z" fill="#6097B2"/>
<path d="M78.3907 405.584C78.3907 406.768 77.4034 407.755 76.2186 407.755C75.0339 407.755 74.0466 406.768 74.0466 405.584C74.0466 404.399 75.0339 403.413 76.2186 403.413C77.4034 403.413 78.3907 404.399 78.3907 405.584Z" fill="#6097B2"/>
<path d="M153.03 401.439C154.229 401.439 155.202 400.467 155.202 399.268C155.202 398.069 154.229 397.097 153.03 397.097C151.83 397.097 150.858 398.069 150.858 399.268C150.858 400.467 151.83 401.439 153.03 401.439Z" fill="#6097B2"/>
<path d="M196.668 412.491C197.867 412.491 198.84 411.519 198.84 410.32C198.84 409.121 197.867 408.149 196.668 408.149C195.468 408.149 194.496 409.121 194.496 410.32C194.496 411.519 195.468 412.491 196.668 412.491Z" fill="#6097B2"/>
<path d="M196.668 350.322C196.668 351.506 195.68 352.493 194.496 352.493C193.311 352.493 192.324 351.506 192.324 350.322C192.324 349.137 193.311 348.15 194.496 348.15C195.68 348.15 196.668 349.137 196.668 350.322Z" fill="#6097B2"/>
<path d="M221.942 354.664C221.942 355.848 220.955 356.835 219.77 356.835C218.586 356.835 217.598 355.848 217.598 354.664C217.598 353.479 218.586 352.493 219.77 352.493C220.955 352.493 221.942 353.479 221.942 354.664Z" fill="#6097B2"/>
<path d="M171.393 426.109C171.393 427.294 170.406 428.28 169.221 428.28C168.036 428.28 167.049 427.294 167.049 426.109C167.049 424.925 168.036 423.938 169.221 423.938C170.406 423.938 171.393 425.123 171.393 426.109Z" fill="#6097B2"/>
<path d="M150.858 465.78C152.057 465.78 153.03 464.808 153.03 463.609C153.03 462.41 152.057 461.438 150.858 461.438C149.658 461.438 148.686 462.41 148.686 463.609C148.686 464.808 149.658 465.78 150.858 465.78Z" fill="#6097B2"/>
<path d="M118.672 471.898C119.872 471.898 120.844 470.926 120.844 469.727C120.844 468.528 119.872 467.556 118.672 467.556C117.472 467.556 116.5 468.528 116.5 469.727C116.5 470.926 117.472 471.898 118.672 471.898Z" fill="#6097B2"/>
<path d="M207.528 439.925C208.727 439.925 209.7 438.953 209.7 437.754C209.7 436.555 208.727 435.583 207.528 435.583C206.328 435.583 205.356 436.555 205.356 437.754C205.356 438.953 206.328 439.925 207.528 439.925Z" fill="#6097B2"/>
<path d="M180.476 453.74C180.476 454.925 179.489 455.911 178.304 455.911C177.12 455.911 176.132 454.925 176.132 453.74C176.132 452.556 177.12 451.569 178.304 451.569C179.489 451.569 180.476 452.556 180.476 453.74Z" fill="#6097B2"/>
<path d="M136.641 500.713C136.641 501.897 135.653 502.884 134.469 502.884C133.284 502.884 132.297 501.897 132.297 500.713C132.297 499.529 133.284 498.542 134.469 498.542C135.653 498.542 136.641 499.529 136.641 500.713Z" fill="#6097B2"/>
<path d="M167.049 491.832C168.249 491.832 169.221 490.86 169.221 489.661C169.221 488.462 168.249 487.49 167.049 487.49C165.85 487.49 164.877 488.462 164.877 489.661C164.877 490.86 165.85 491.832 167.049 491.832Z" fill="#6097B2"/>
<path d="M198.445 479.595C199.644 479.595 200.617 478.623 200.617 477.424C200.617 476.225 199.644 475.253 198.445 475.253C197.245 475.253 196.273 476.225 196.273 477.424C196.273 478.623 197.245 479.595 198.445 479.595Z" fill="#6097B2"/>
<path d="M186.4 513.542C186.4 514.726 185.413 515.713 184.228 515.713C183.043 515.713 182.056 514.726 182.056 513.542C182.056 512.358 183.043 511.371 184.228 511.371C185.413 511.371 186.4 512.358 186.4 513.542Z" fill="#6097B2"/>
<path d="M184.03 624.461H149.475C147.303 617.948 151.45 611.632 150.66 605.909C149.475 596.238 155.004 601.567 155.004 601.567C155.992 591.304 170.406 589.33 170.406 593.869C170.208 600.58 171.393 604.922 173.368 607.685C177.317 613.408 183.636 613.211 184.82 617.356C185.018 617.75 185.018 618.145 185.018 618.54C186.203 623.474 184.03 624.461 184.03 624.461Z" fill="#164353"/>
<path d="M185.018 618.54C177.909 620.119 161.323 617.948 160.731 613.803C160.138 609.856 169.024 607.882 173.368 607.685C177.317 613.408 183.636 613.211 184.82 617.356C185.018 617.75 185.018 618.145 185.018 618.54Z" fill="#205260"/>
<path d="M41.861 356.44C38.1093 353.085 32.1856 358.611 32.1856 358.611C32.1856 358.611 35.3449 363.348 33.3703 365.321C31.1983 367.295 28.8288 362.756 24.6822 364.729C24.2873 364.927 24.0898 365.124 23.6949 365.321C20.5356 367.295 17.1788 371.242 14.4144 374.203C13.822 374.795 13.4271 375.387 12.8347 375.979C9.67541 379.334 1.57965 381.11 -1.1012e-05 372.426C-1.57967 363.742 8.29321 353.479 19.1534 344.006C30.0136 334.532 36.9246 340.256 36.9246 340.256C36.9246 340.256 39.2941 344.203 39.2941 346.769C39.2941 349.137 41.4661 350.519 42.6508 352.887C44.2305 355.058 41.861 356.44 41.861 356.44Z" fill="#164353"/>
<path d="M23.6949 365.321C20.5356 367.295 17.1788 371.242 14.4144 374.203C10.2678 375.19 6.71354 374.795 6.12116 371.045C4.73896 361.769 23.1025 350.124 21.7203 356.637C20.9305 359.993 22.3127 363.15 23.6949 365.321Z" fill="#205260"/>
<path d="M664.642 609.461C662.865 608.474 661.286 606.501 659.903 604.132C659.903 604.132 658.719 596.83 659.903 588.935C661.088 581.238 657.731 574.922 646.871 572.554C636.208 570.185 629.89 575.317 632.259 596.83C630.68 605.711 630.285 615.974 634.036 624.461H666.814C666.814 624.461 672.146 613.408 664.642 609.461Z" fill="#CFD8DC"/>
<path d="M693.471 494.2C693.471 494.2 693.471 515.515 681.426 537.423C669.184 559.725 653.98 590.317 653.98 590.317C653.98 590.317 643.909 600.185 637.393 583.804C637.393 583.804 641.935 526.963 652.4 506.042C662.865 485.121 693.471 494.2 693.471 494.2Z" fill="#FF8B66"/>
<path d="M850.845 424.531C850.845 424.531 870.393 506.634 882.833 528.344C882.833 528.344 880.069 537.423 866.444 540.186C866.444 540.186 823.991 477.819 821.226 451.372C818.462 425.123 850.845 424.531 850.845 424.531Z" fill="#FF8B66"/>
<path d="M860.125 443.872C854.992 456.306 814.71 457.096 814.71 457.096L811.551 452.556L810.761 451.372L804.442 442.096C804.442 442.096 737.899 376.966 725.065 382.295C724.67 382.492 724.275 382.689 723.88 382.887C714.994 389.202 714.204 424.136 703.542 482.556C702.554 488.082 700.382 494.595 698.605 498.937C698.408 499.332 698.21 499.924 698.013 500.318C697.026 502.884 696.433 504.463 696.433 504.463C655.757 520.844 642.527 488.477 642.527 488.477C642.527 488.477 642.922 487.49 643.712 486.108C643.909 485.713 644.107 485.319 644.304 484.924C646.476 480.187 649.833 472.095 649.833 467.753C649.833 463.017 649.833 458.477 649.636 454.135C649.636 453.74 649.636 453.346 649.636 452.951C649.636 438.938 649.636 426.702 649.636 416.044V414.86C649.636 410.32 649.833 405.978 649.833 401.834V400.649C650.228 382.097 650.82 369.861 651.413 361.571C651.413 361.177 651.413 360.782 651.413 360.387C652.598 346.572 653.782 345.19 653.782 345.19L645.687 288.744H734.542C734.542 288.744 747.97 302.165 765.148 319.73C765.543 320.125 765.938 320.52 766.136 320.717C772.454 327.033 779.168 333.94 785.881 341.045C786.079 341.243 786.474 341.638 786.671 341.835C789.436 344.598 792.003 347.361 794.767 350.124C795.162 350.519 795.359 350.716 795.754 351.111C804.64 360.387 813.328 369.466 820.634 377.36C820.831 377.558 821.226 377.953 821.424 378.15C831.494 389.005 839.195 397.886 841.959 401.834C849.068 412.689 854.399 426.504 857.559 435.188C857.756 435.583 857.756 435.978 857.953 436.372C859.336 441.109 860.125 443.872 860.125 443.872Z" fill="#8B383E"/>
<path d="M667.209 354.071C663.655 358.413 658.324 360.979 651.61 361.966C651.61 361.571 651.61 361.177 651.61 360.782C657.929 359.795 663.063 357.427 666.42 353.282C672.541 346.177 671.554 336.309 671.554 336.309L672.738 336.111C672.738 336.704 673.726 346.572 667.209 354.071Z" fill="#662C33"/>
<path d="M766.333 321.112C765.938 321.112 765.741 321.112 765.346 321.112C755.473 321.112 745.205 310.257 744.613 309.862L745.403 309.072C745.6 309.27 755.868 319.927 765.346 320.125C765.543 320.52 765.938 320.914 766.333 321.112Z" fill="#662C33"/>
<path d="M699 499.134C698.803 499.529 698.605 500.121 698.408 500.516C691.892 502.884 685.77 503.871 680.242 503.871C662.668 503.871 650.623 493.806 643.909 486.108C644.107 485.714 644.304 485.319 644.502 484.924C652.992 494.99 671.159 509.595 699 499.134Z" fill="#662C33"/>
<path d="M722.695 361.966C724.077 368.282 725.064 375.19 725.064 382.295C724.67 382.492 724.275 382.689 723.88 382.887C723.88 349.73 704.726 324.072 704.529 323.677L705.319 323.085C705.516 323.283 716.771 338.677 722.3 360.782C724.472 359.4 726.052 357.229 726.644 354.466C729.409 342.822 716.771 323.875 716.771 323.677L717.759 323.085C718.351 323.875 730.791 342.624 727.829 354.664C727.237 358.019 725.459 360.387 722.695 361.966Z" fill="#662C33"/>
<path d="M821.621 378.742C818.264 382.295 815.303 385.255 814.908 385.65L814.315 386.242L814.118 385.452C809.774 374.203 782.13 349.927 781.932 349.532L781.537 349.137L786.079 341.44C786.276 341.638 786.671 342.032 786.869 342.23L782.92 348.545C788.251 350.322 792.2 350.716 794.767 350.322C795.162 350.716 795.359 350.914 795.754 351.308C794.767 351.506 793.977 351.506 792.792 351.506C790.226 351.506 787.461 350.914 784.302 350.124C790.62 355.848 809.971 373.808 814.513 383.873C816.29 382.097 818.462 379.926 820.634 377.558C821.029 378.15 821.424 378.347 821.621 378.742Z" fill="#662C33"/>
<path d="M669.974 453.938H669.579C669.184 454.135 664.248 455.122 658.521 455.122C655.559 455.122 652.598 454.925 649.833 454.135C649.833 453.74 649.833 453.346 649.833 452.951C657.139 455.122 666.814 453.346 668.987 452.951L667.209 407.36C666.222 409.926 664.05 413.281 660.298 415.254C658.521 416.241 656.349 416.636 654.177 416.636C652.795 416.636 651.413 416.439 650.031 416.241V415.057C653.782 415.847 657.139 415.649 659.904 414.268C664.643 411.899 666.42 406.965 667.012 404.992C663.26 405.584 655.954 403.61 650.426 402.031V400.847C656.547 402.623 664.642 404.794 667.604 403.807L668.394 403.61L669.974 453.938Z" fill="#662C33"/>
<path d="M857.953 436.964C851.635 443.28 838.603 452.951 818.462 452.951C816.29 452.951 814.118 452.754 811.748 452.556L810.958 451.372C835.443 454.135 850.648 442.688 857.559 435.978C857.756 436.175 857.953 436.57 857.953 436.964Z" fill="#662C33"/>
<path d="M750.931 48.9464C750.931 48.9464 748.562 43.4202 738.097 43.4202C730.198 43.4202 727.039 47.7622 727.039 47.7622C722.3 61.5777 717.166 114.866 715.389 116.642C714.402 117.629 655.559 157.299 655.559 157.299C687.548 157.891 707.491 197.364 707.491 197.364C708.478 184.338 744.613 133.221 745.008 128.484C745.995 119.8 761.199 81.3141 750.931 48.9464Z" fill="#CE364C"/>
<path d="M648.846 326.638C648.846 326.638 648.648 337.69 652.203 338.48C655.757 339.269 684.981 347.756 718.548 332.559C752.116 317.362 758.04 305.915 748.167 297.625C738.294 289.336 648.846 326.638 648.846 326.638Z" fill="#CE364C"/>
<path d="M635.221 164.799C635.221 164.799 604.615 161.247 587.041 168.746C587.041 168.746 582.105 190.457 606.195 239.008C630.285 287.56 624.756 318.151 651.808 329.598C675.897 339.861 746.982 309.467 749.154 299.402C754.683 274.139 711.242 229.535 708.675 203.68C706.108 178.023 680.834 139.339 635.221 164.799Z" fill="#F24052"/>
<path d="M587.239 168.747C565.914 176.246 541.824 200.325 541.824 211.969C541.824 223.614 561.964 227.956 561.964 227.956L594.94 211.969C594.94 211.969 604.418 205.456 598.297 186.312C592.175 166.97 587.239 168.747 587.239 168.747Z" fill="#CE364C"/>
<path d="M674.91 190.259C668.592 190.259 660.693 187.891 655.757 184.536C652.992 182.562 651.413 180.391 651.018 178.22C649.833 170.72 657.139 166.773 657.534 166.575L658.521 168.549C658.324 168.746 652.203 171.904 653.19 177.825C653.387 179.404 654.77 181.18 656.942 182.759C662.47 186.707 671.948 189.075 678.267 187.891C681.031 187.496 682.809 186.312 683.796 184.93C684.783 183.154 683.993 180.983 683.993 180.983L685.968 180.194C685.968 180.391 687.153 183.154 685.77 185.917C684.586 188.088 682.216 189.47 678.859 190.062C677.477 190.062 676.292 190.259 674.91 190.259Z" fill="#CFD8DC"/>
<path d="M647.858 213.351C643.119 213.351 635.221 211.377 634.234 203.68C633.642 199.733 634.036 196.378 634.431 193.614C634.826 189.272 635.221 185.917 632.852 181.97C628.705 175.26 623.176 174.865 622.979 174.865L623.176 172.694C623.374 172.694 630.087 173.089 634.826 180.786C637.788 185.522 637.196 189.47 636.801 193.812C636.406 196.772 636.208 199.733 636.603 203.483C637.788 211.772 648.451 211.377 648.846 211.377L649.043 213.548C648.451 213.351 648.253 213.351 647.858 213.351Z" fill="#CFD8DC"/>
<path d="M654.572 174.075C654.572 174.075 670.764 163.023 666.815 151.181C663.063 139.339 610.934 140.128 597.507 154.339C584.08 168.549 626.533 178.022 626.533 178.022C629.89 171.312 650.82 170.523 654.572 174.075Z" fill="#CE364C"/>
<path d="M625.546 172.102C617.845 169.536 613.303 164.01 614.883 157.497C616.463 151.181 649.438 150.984 655.757 156.115C662.076 161.247 653.19 181.575 625.546 172.102Z" fill="#A02E44"/>
<path d="M621.794 154.141C621.794 154.141 628.508 165.786 625.348 172.102C625.348 172.102 648.648 180.194 648.648 167.167C648.648 167.167 644.304 157.497 645.884 151.181L621.794 154.141Z" fill="#EF6E4B"/>
<path d="M614.093 144.076C614.093 144.076 602.641 125.721 603.628 108.353C604.22 99.669 608.564 96.1164 608.564 96.1164C608.564 96.1164 605.01 90.9849 608.762 83.2877C608.762 83.2877 614.093 89.6034 633.049 87.6297C651.215 85.6561 653.19 98.6821 653.19 98.6821C666.222 100.656 657.336 140.129 648.253 144.076H614.093Z" fill="#FFB878"/>
<path d="M609.157 127.103C609.157 127.103 602.641 120.59 601.851 128.287C600.864 137.168 608.959 140.721 610.539 137.958C612.119 134.997 609.157 127.103 609.157 127.103Z" fill="#FF8B66"/>
<path d="M655.165 127.497C655.165 127.497 661.681 120.984 662.47 128.682C663.458 137.563 655.362 141.116 653.782 138.352C652.4 135.589 655.165 127.497 655.165 127.497Z" fill="#FF8B66"/>
<path d="M631.47 159.273C616.858 159.273 608.565 149.799 608.565 121.182C608.565 106.379 616.068 97.4979 632.457 97.4979C648.846 97.4979 655.757 106.577 655.757 121.182C655.757 151.97 646.674 159.273 631.47 159.273Z" fill="#FF8B66"/>
<path d="M651.018 131.445C651.215 132.826 650.03 134.405 648.253 134.602C646.476 134.997 644.699 134.01 644.502 132.431C644.304 131.05 645.489 129.471 647.266 129.274C649.043 129.076 650.623 129.866 651.018 131.445Z" fill="#DB614D"/>
<path d="M621.004 132.234C621.004 133.813 619.227 134.8 617.45 134.8C615.673 134.602 614.093 133.418 614.291 131.839C614.291 130.26 616.068 129.274 617.845 129.274C619.622 129.471 621.004 130.655 621.004 132.234Z" fill="#DB614D"/>
<path d="M644.502 116.05C644.304 116.05 644.107 116.05 643.909 115.853C641.54 114.077 638.183 114.669 637.986 114.669C637.591 114.669 637.196 114.471 637.196 114.077C637.196 113.682 637.393 113.287 637.788 113.287C637.986 113.287 641.935 112.498 644.897 114.669C645.292 114.866 645.292 115.458 645.094 115.655C644.897 116.05 644.699 116.05 644.502 116.05Z" fill="#FFB878"/>
<path d="M616.66 116.248C616.463 116.248 616.265 116.05 616.265 116.05C616.068 115.655 616.068 115.261 616.463 115.063C619.227 112.892 623.176 113.484 623.374 113.484C623.769 113.484 623.966 113.879 623.966 114.274C623.966 114.669 623.571 114.866 623.176 114.866C623.176 114.866 619.622 114.274 617.45 116.248C617.055 116.248 616.858 116.248 616.66 116.248Z" fill="#FFB878"/>
<path d="M643.12 124.34C643.12 126.116 642.33 127.695 641.342 127.695C640.355 127.695 639.565 126.313 639.565 124.34C639.565 122.563 640.355 120.984 641.342 120.984C642.132 120.984 643.12 122.563 643.12 124.34Z" fill="#1A4850"/>
<path d="M623.571 124.34C623.571 126.116 622.781 127.695 621.794 127.695C620.807 127.695 620.017 126.313 620.017 124.34C620.017 122.563 620.807 120.984 621.794 120.984C622.781 120.984 623.571 122.563 623.571 124.34Z" fill="#1A4850"/>
<path d="M613.106 100.656C613.106 100.656 628.705 106.379 651.018 104.8C651.018 104.8 655.757 110.721 655.164 131.642C655.164 131.642 668.197 93.9453 630.087 93.9453C591.978 93.9453 609.157 130.655 609.157 130.655C609.157 130.655 606.195 107.563 613.106 100.656Z" fill="#FFB878"/>
<path d="M632.457 134.01L631.272 132.826L634.234 129.866C631.47 125.918 631.47 116.84 631.47 116.445H633.049C633.049 116.445 633.049 126.313 635.814 129.471L636.406 130.063L632.457 134.01Z" fill="#DB614D"/>
<path d="M622.781 138.747C622.781 138.747 637.196 139.339 644.304 137.365C644.304 137.365 645.489 147.826 634.431 148.418C622.781 149.01 622.781 138.747 622.781 138.747Z" fill="#1A4850"/>
<path d="M684.191 178.22C686.955 177.628 686.56 184.93 684.191 182.759C681.624 180.786 681.426 178.812 684.191 178.22Z" fill="#CFD8DC"/>
<path d="M651.018 212.956C650.623 215.719 643.909 213.153 646.674 211.377C649.636 209.798 651.61 210.193 651.018 212.956Z" fill="#CFD8DC"/>
<path d="M621.597 227.956C621.597 227.956 617.253 239.206 617.45 245.324C617.648 251.64 619.82 250.85 619.82 250.85C619.82 250.85 616.463 252.232 615.87 255.784C615.278 259.337 624.361 262.1 624.953 262.1C625.546 262.1 632.062 259.731 632.062 259.731L633.444 239.206L627.718 235.653L621.597 227.956Z" fill="#EF6E4B"/>
<path d="M625.151 226.574C625.151 226.574 633.049 231.508 636.208 234.469C639.368 237.429 637.591 260.718 636.208 261.902C634.826 263.086 624.756 265.257 622.781 264.073C620.807 262.889 623.571 255.981 623.571 255.981C623.571 255.981 628.705 254.797 627.915 256.771C627.125 258.744 627.915 260.323 627.915 260.323L630.087 259.534C630.087 259.534 629.1 254.402 630.087 250.455C631.075 246.705 622.979 242.561 621.992 235.653C620.807 228.35 625.151 226.574 625.151 226.574Z" fill="#FF8B66"/>
<path d="M543.009 215.127C540.442 204.272 551.302 200.325 566.506 202.101C584.08 204.272 620.017 208.811 627.915 227.758C627.915 227.758 630.482 235.258 623.769 238.811C605.405 249.074 547.748 235.653 543.009 215.127Z" fill="#CE364C"/>
<path d="M597.902 208.022C597.902 208.022 576.971 199.338 566.506 198.548C556.238 197.562 580.92 206.64 597.902 208.022Z" fill="#A02E44"/>
<path d="M754.683 19.7364C753.103 21.5127 750.536 28.6178 750.536 28.6178C749.352 34.5387 748.759 37.6966 746.785 40.4597C744.81 43.2228 745.797 47.9595 745.797 47.9595C745.797 47.9595 737.899 52.1042 731.186 46.9727C731.186 46.9727 731.975 42.2359 731.186 40.8544C729.803 38.0913 725.459 36.7097 723.88 31.3809C722.3 26.0521 717.759 19.9338 717.759 19.9338C717.759 19.9338 719.141 17.1707 721.51 18.7496C723.88 20.5259 725.459 24.8679 726.644 25.2626C726.842 25.2626 727.236 25.46 727.434 25.46C728.421 25.6573 729.409 25.46 730.001 24.8679C730.001 24.8679 730.198 24.8679 730.198 24.6705C732.37 22.1048 732.963 14.8023 732.765 11.4471C732.568 6.90774 732.765 0.394715 735.53 1.5789C738.294 2.56572 735.727 5.13146 737.899 15.3944L738.886 15.5918C739.084 16.3812 741.058 9.47347 741.453 2.96045C741.848 -1.57893 744.613 0.19735 745.403 1.5789C745.995 2.96045 745.008 7.49983 744.81 10.6577C744.613 12.8287 744.415 14.9997 744.415 16.3812L745.6 16.9733C749.944 9.27611 748.562 6.11828 751.129 5.92091C753.696 5.72355 752.708 12.2366 751.326 14.8023C750.734 15.7891 750.142 18.1575 749.747 20.3285C754.288 14.9997 753.696 12.4339 755.868 12.6313C758.04 12.8287 756.065 17.9601 754.683 19.7364Z" fill="#FF8B66"/>
<path d="M734.937 31.973C733.358 27.8284 727.829 25.8547 727.236 25.6574C728.224 25.8547 729.211 25.6574 729.803 25.0653C735.332 27.2363 734.937 31.973 734.937 31.973Z" fill="#EF6E4B"/>
<path d="M639.763 592.29C639.763 592.29 636.801 586.172 639.368 583.409C642.132 580.843 645.292 585.777 649.833 584.593C654.375 583.409 655.559 580.251 656.744 584.593C657.929 589.33 656.547 603.343 639.763 592.29Z" fill="#CFD8DC"/>
<path d="M657.139 592.093C657.139 592.093 644.699 596.435 638.381 592.093L639.96 597.422C639.96 597.422 653.387 598.803 655.362 595.448L657.139 592.093Z" fill="#ADBEC4"/>
<path d="M656.942 598.803C656.942 598.803 645.489 597.224 640.158 599.987V602.553C640.158 602.553 654.967 599 659.706 602.553L656.942 598.803Z" fill="#ADBEC4"/>
<path d="M639.565 608.277C639.565 608.277 641.737 602.948 648.648 602.553C655.559 602.158 660.298 605.908 660.298 605.908C660.298 605.908 649.241 601.369 639.565 608.277Z" fill="#ADBEC4"/>
<path d="M932 533.673C910.28 562.686 880.464 568.409 880.464 568.409C871.775 561.501 871.578 553.409 871.578 553.409C871.578 553.409 863.285 545.91 862.1 542.357C860.915 538.805 869.209 528.147 874.145 529.134C877.502 529.923 879.476 532.686 880.464 534.265C876.317 524.989 879.674 521.831 885.4 522.621C891.521 523.41 885.795 524.792 890.139 529.726C890.534 530.121 890.731 530.318 891.126 530.713C891.916 531.305 892.903 531.699 893.891 531.897C894.878 532.094 895.865 532.094 897.05 532.094C897.642 532.094 898.235 532.094 898.827 531.897C900.012 531.699 900.999 531.502 902.184 531.107C903.961 530.515 905.936 529.726 907.713 528.739C915.216 524.594 918.375 523.213 924.102 524.594C929.828 525.976 929.828 530.318 929.828 530.318L932 533.673Z" fill="#CFD8DC"/>
<path d="M932 533.673C910.28 562.686 880.464 568.409 880.464 568.409C895.668 561.896 909.49 553.409 918.968 542.949C928.643 532.291 932 533.673 932 533.673Z" fill="#ADBEC4"/>
<path d="M891.324 530.713C892.114 531.305 893.101 531.699 894.088 531.897C888.362 533.081 887.967 538.212 887.967 538.212L885.598 537.423C885.992 531.107 890.929 530.713 891.324 530.713Z" fill="#ADBEC4"/>
<path d="M895.075 538.607H892.508C891.521 535.055 892.706 532.884 894.088 531.502C895.075 531.699 896.063 531.7 897.247 531.7C894.088 534.857 895.075 538.607 895.075 538.607Z" fill="#ADBEC4"/>
<path d="M901.394 537.226L898.827 537.62C897.84 535.055 898.037 533.081 898.827 531.699C900.012 531.502 900.999 531.305 902.184 530.91C900.209 534.068 901.394 537.226 901.394 537.226Z" fill="#ADBEC4"/>
<path d="M657.336 267.034C657.336 267.034 663.063 297.428 651.61 309.467C640.158 321.506 647.661 311.638 651.215 296.046C654.572 280.455 652.005 264.073 657.336 267.034Z" fill="#CE364C"/>
<path d="M709.86 253.416C709.86 253.416 727.829 259.337 737.109 275.915C737.307 275.915 724.669 249.074 709.86 253.416Z" fill="#CE364C"/>
<path d="M243.86 27.8284C246.23 27.8284 253.141 30.5915 253.141 30.5915C258.275 33.7494 261.039 35.5256 264.396 35.723C267.752 36.1177 269.135 41.8413 269.135 41.8413C269.135 41.8413 282.364 44.8018 283.154 36.3151C283.154 36.3151 275.651 25.8548 275.256 24.4732C274.269 21.7101 276.046 17.3681 273.084 12.6314C270.122 7.89464 268.74 0.394799 268.74 0.394799C268.74 0.394799 265.778 -0.592022 265.383 2.36844C264.988 5.32891 267.16 9.27619 266.765 10.6577C266.568 10.8551 266.568 11.0525 266.37 11.4472C265.778 12.2367 264.988 12.8287 264.198 12.8287H264.001C260.644 12.8287 254.918 8.09201 252.548 5.921C249.191 2.76317 244.452 -1.38148 243.268 1.38162C242.083 4.14472 245.835 3.94736 251.956 12.434L251.364 13.2235C251.758 13.8156 245.44 10.6577 240.306 6.71046C236.752 3.94736 235.962 7.30255 236.752 8.6841C237.344 10.0656 241.293 12.434 243.86 14.4077C245.637 15.7892 247.217 17.1708 248.402 17.9602L248.007 19.3418C239.319 17.3681 237.936 14.2103 236.159 15.9866C234.382 17.7629 239.714 21.5128 242.478 22.1049C243.663 22.3022 245.637 23.4864 247.612 24.6706C240.701 24.4732 238.924 22.3022 237.739 24.0785C236.357 25.8548 241.491 27.8284 243.86 27.8284Z" fill="#FF8B66"/>
<path d="M265.975 21.5127C263.803 17.5654 266.173 12.2366 266.37 11.4471C265.778 12.2366 264.988 12.8287 264.198 12.8287C262.224 18.5523 265.975 21.5127 265.975 21.5127Z" fill="#EF6E4B"/>
<path d="M634.431 27.8284C632.062 27.8284 625.151 30.5915 625.151 30.5915C620.017 33.7494 617.252 35.5256 613.896 35.723C610.539 36.1177 609.157 41.8413 609.157 41.8413C609.157 41.8413 595.927 44.8018 595.137 36.3151C595.137 36.3151 602.64 25.8548 603.035 24.4732C604.023 21.7101 602.246 17.3681 605.207 12.6314C608.169 7.89464 609.552 0.394799 609.552 0.394799C609.552 0.394799 612.513 -0.592022 612.908 2.36844C613.303 5.32891 611.131 9.27619 611.526 10.6577C611.724 10.8551 611.724 11.0525 611.921 11.4472C612.513 12.2367 613.303 12.8287 614.093 12.8287H614.291C617.647 12.8287 623.374 8.09201 625.743 5.921C629.1 2.76317 633.839 -1.38148 635.024 1.38162C636.208 4.14472 632.457 3.94736 626.336 12.434L626.928 13.2235C626.533 13.8156 632.852 10.6577 637.986 6.71046C641.54 3.94736 642.33 7.30255 641.54 8.6841C640.947 10.0656 636.998 12.434 634.431 14.4077C632.654 15.7892 631.074 17.1708 629.89 17.9602L630.285 19.3418C638.973 17.3681 640.355 14.2103 642.132 15.9866C643.909 17.7629 638.578 21.5128 635.813 22.1049C634.629 22.3022 632.654 23.4864 630.68 24.6706C637.591 24.4732 639.368 22.3022 640.552 24.0785C641.935 25.8548 636.801 27.8284 634.431 27.8284Z" fill="#FF8B66"/>
<path d="M612.316 21.5127C614.488 17.5654 612.119 12.2366 611.921 11.4471C612.514 12.2366 613.303 12.8287 614.093 12.8287C616.068 18.5523 612.316 21.5127 612.316 21.5127Z" fill="#EF6E4B"/>
<path d="M517.734 430.254L492.262 272.363L441.12 278.086L389.979 272.363L364.507 430.254L352.264 583.409C352.264 583.409 356.214 596.04 381.686 587.356C381.686 587.356 400.641 445.254 403.603 442.293C406.565 439.135 436.579 346.374 436.579 346.374H446.057C446.057 346.374 476.07 439.135 479.032 442.293C481.994 445.451 500.95 587.356 500.95 587.356C526.422 596.04 530.371 583.409 530.371 583.409L517.734 430.254Z" fill="#0E3944"/>
<path d="M425.126 119.405C428.286 122.563 444.28 128.287 452.573 119.405L458.299 124.932C458.299 124.932 451.783 140.129 440.528 140.721C429.075 141.313 420.98 127.103 420.98 127.103L425.126 119.405Z" fill="#0C476B"/>
<path d="M470.147 117.827C489.103 109.735 550.512 87.8272 550.512 87.8272C550.512 87.8272 591.78 36.1177 600.271 28.4205C600.271 28.4205 609.354 29.9994 612.119 41.4466C612.119 41.4466 585.462 98.2875 571.047 114.669C556.633 130.853 483.376 166.181 483.376 166.181L470.147 117.827Z" fill="#0C476B"/>
<path d="M403.603 116.642C409.33 113.09 437.566 132.037 437.566 132.037C437.566 132.037 474.491 112.498 483.179 116.248C483.179 116.248 491.077 126.708 494.039 153.55C497.198 180.391 497.396 290.718 497.396 290.718C497.396 290.718 472.516 299.402 438.948 299.402C400.642 299.402 380.106 288.349 380.106 288.349C380.106 288.349 373.392 135.589 403.603 116.642Z" fill="#FFB878"/>
<path d="M426.706 113.682C426.706 113.682 430.853 126.511 426.706 131.445C426.706 131.445 430.853 140.326 438.553 140.721C447.439 141.116 450.401 131.445 450.401 131.445C450.401 131.445 445.662 119.011 450.401 114.669L426.706 113.682Z" fill="#EF6E4B"/>
<path d="M416.438 101.051C416.438 101.051 407.75 84.4721 409.527 66.9066C411.304 49.1439 437.961 45.1966 455.93 53.8806C455.93 53.8806 450.598 48.7491 452.77 47.1702C454.942 45.7887 458.497 55.0648 458.497 55.0648C458.497 55.0648 464.223 53.2885 465.013 55.0648C465.803 56.8411 459.286 57.8279 459.286 57.8279C459.286 57.8279 470.936 64.3409 460.076 98.4849L416.438 101.051Z" fill="#8B383E"/>
<path d="M415.056 90.5903C415.056 90.5903 408.737 84.2746 407.947 91.5771C406.96 100.261 414.858 103.814 416.438 101.051C418.018 98.2875 415.056 90.5903 415.056 90.5903Z" fill="#FF8B66"/>
<path d="M460.076 90.985C460.076 90.985 466.395 84.6694 467.185 91.9719C468.172 100.656 460.274 104.208 458.694 101.445C457.114 98.6822 460.076 90.985 460.076 90.985Z" fill="#FF8B66"/>
<path d="M436.974 121.971C422.757 121.971 414.661 112.695 414.661 84.8669C414.661 70.4593 421.967 61.7753 437.961 61.7753C453.955 61.7753 460.669 70.6567 460.669 84.8669C460.471 114.669 451.586 121.971 436.974 121.971Z" fill="#FF8B66"/>
<path d="M455.93 94.735C456.127 96.1166 454.942 97.4981 453.165 97.8928C451.388 98.2876 449.809 97.3007 449.414 95.9192C449.216 94.5376 450.401 93.1561 452.178 92.7614C453.955 92.3666 455.535 93.3535 455.93 94.735Z" fill="#DB614D"/>
<path d="M426.508 95.5245C426.508 96.906 424.929 98.0902 423.152 97.8928C421.375 97.6955 419.992 96.5113 419.992 95.1297C419.992 93.7482 421.572 92.564 423.349 92.7614C425.324 92.7614 426.706 94.1429 426.508 95.5245Z" fill="#DB614D"/>
<path d="M449.414 80.3274C449.216 80.3274 449.019 80.3274 448.821 80.13C446.847 78.1564 443.49 78.1564 443.292 78.1564C442.897 78.1564 442.502 77.959 442.502 77.5643C442.502 77.1696 442.7 76.7748 443.095 76.7748C443.292 76.7748 447.241 76.5775 449.611 79.1432C449.808 79.3406 449.808 79.9327 449.611 80.13L449.414 80.3274Z" fill="#8B383E"/>
<path d="M422.559 80.3274C422.362 80.3274 422.164 80.3274 422.164 80.13C421.967 79.9327 421.967 79.3406 422.164 79.1432C424.534 76.5775 428.483 76.7748 428.68 76.7748C429.075 76.7748 429.47 77.1696 429.273 77.5643C429.273 77.959 428.878 78.3537 428.483 78.1564C428.483 78.1564 424.929 78.1564 422.954 80.13C422.954 80.13 422.757 80.3274 422.559 80.3274Z" fill="#8B383E"/>
<path d="M448.031 87.8272C448.031 89.6035 447.242 90.985 446.254 90.985C445.267 90.985 444.477 89.6035 444.477 87.8272C444.477 86.0509 445.267 84.6694 446.254 84.6694C447.242 84.6694 448.031 86.0509 448.031 87.8272Z" fill="#1A4850"/>
<path d="M429.075 87.8272C429.075 89.6035 428.286 90.985 427.298 90.985C426.311 90.985 425.521 89.6035 425.521 87.8272C425.521 86.0509 426.311 84.6694 427.298 84.6694C428.286 84.6694 429.075 86.0509 429.075 87.8272Z" fill="#1A4850"/>
<path d="M429.075 106.774C429.075 106.774 441.713 108.353 448.031 105.195C448.031 105.195 444.477 113.682 437.566 112.893C430.655 112.3 429.075 106.774 429.075 106.774Z" fill="#1A4850"/>
<path d="M459.089 94.1429C459.089 94.1429 458.694 78.7485 452.573 66.7092C452.573 66.7092 441.91 71.6434 439.541 70.4592C437.171 69.275 441.713 66.7092 441.713 66.7092C441.713 66.7092 424.139 72.4328 423.152 71.2486C422.164 70.0644 428.878 66.7092 428.878 66.7092L418.018 70.4592C418.018 70.4592 414.661 84.472 416.043 94.1429C416.043 94.1429 411.304 86.0509 410.712 80.5247C410.119 74.9985 412.686 59.012 429.075 57.8279C445.464 56.6437 454.745 60.3936 458.892 67.8934C463.038 75.5906 462.643 84.8668 459.089 94.1429Z" fill="#8B383E"/>
<path d="M439.343 102.235C437.961 102.235 436.579 101.84 436.184 101.84L436.579 100.459C438.158 100.853 440.33 101.051 440.923 100.459C441.12 100.261 441.12 99.6691 440.725 99.077C438.751 94.735 438.158 83.6826 438.158 83.0905H439.738C439.738 83.2878 440.133 94.3402 442.108 98.4849C442.7 99.6691 442.7 100.656 442.108 101.445C441.515 102.037 440.528 102.235 439.343 102.235Z" fill="#DB614D"/>
<path d="M455.14 123.55C455.14 123.55 480.809 203.483 483.376 268.415C483.376 268.415 492.657 270.981 503.122 256.771C513.587 242.561 507.269 129.668 487.325 110.919C487.325 110.919 478.242 108.748 455.14 123.55Z" fill="#105E99"/>
<path d="M459.286 137.563C459.286 137.563 463.828 126.905 461.853 119.603C459.879 112.3 452.573 119.603 452.573 119.603C452.573 119.603 455.535 131.445 459.286 137.563Z" fill="#0C476B"/>
<path d="M407.552 117.827C388.597 109.735 327.187 87.8272 327.187 87.8272C327.187 87.8272 285.721 34.7362 277.428 27.039C277.428 27.039 266.963 32.96 266.37 45.1966C266.37 45.1966 292.435 98.4849 306.849 114.866C321.264 131.247 394.52 166.378 394.52 166.378L407.552 117.827Z" fill="#0C476B"/>
<path d="M422.559 123.55C422.559 123.55 396.89 203.483 394.323 268.415C394.323 268.415 385.042 270.981 374.577 256.771C364.112 242.561 370.431 129.668 390.374 110.919C390.374 110.919 399.457 108.748 422.559 123.55Z" fill="#105E99"/>
<path d="M418.413 137.563C418.413 137.563 413.871 126.905 415.846 119.603C417.82 112.3 425.126 119.603 425.126 119.603C425.126 119.603 422.164 131.445 418.413 137.563Z" fill="#0C476B"/>
<path d="M552.684 624.461H501.542C497.988 604.132 503.714 583.804 503.714 583.804L527.014 579.856C529.186 592.685 531.753 597.816 535.308 600.382C537.875 602.356 541.034 602.948 544.786 604.132C549.13 605.711 551.499 608.474 552.684 611.435C555.053 617.553 552.684 624.461 552.684 624.461Z" fill="#662C33"/>
<path d="M552.881 611.632C540.244 613.211 512.6 615.974 514.18 608.671C515.562 602.553 527.212 600.974 535.308 600.58C537.875 602.553 541.034 603.145 544.786 604.33C549.327 605.711 551.697 608.474 552.881 611.632Z" fill="#8B383E"/>
<path d="M381.488 624.461H330.347C330.347 624.461 328.767 619.724 329.557 614.592C330.149 610.448 332.321 606.106 338.245 604.132C342.589 602.553 346.143 601.961 348.908 599.395C351.869 596.632 354.239 591.303 356.016 579.856L379.316 583.804C379.514 583.804 385.042 604.132 381.488 624.461Z" fill="#662C33"/>
<path d="M329.557 614.592C330.149 610.448 332.321 606.106 338.245 604.132C342.589 602.553 346.143 601.961 348.908 599.396C355.424 601.369 364.507 605.119 367.271 610.645C371.023 618.342 341.207 617.158 329.557 614.592Z" fill="#8B383E"/>
<path d="M748.562 620.908C748.562 623.079 748.364 624.658 748.364 624.658H686.165C686.165 623.474 686.165 622.289 686.165 620.908C686.955 604.724 692.089 590.514 692.089 590.514L707.688 583.803C709.07 591.895 712.427 596.83 716.771 600.185C717.956 601.172 719.141 601.764 720.325 602.553C720.918 602.948 721.51 603.145 722.102 603.343C723.485 603.935 724.669 604.329 726.052 604.724C731.58 606.303 737.109 606.698 740.861 607.29C747.575 608.474 748.562 616.171 748.562 620.908Z" fill="#164353"/>
<path d="M748.562 620.908C748.562 623.079 748.364 624.658 748.364 624.658H686.165C686.165 623.474 686.165 622.29 686.165 620.908H748.562Z" fill="#225866"/>
<path d="M720.325 602.553L711.637 605.316L709.86 602.158L716.771 600.185C717.956 601.172 719.141 601.961 720.325 602.553Z" fill="#225866"/>
<path d="M726.052 604.921L720.325 608.869L716.771 607.487L722.103 603.54C723.287 603.935 724.67 604.527 726.052 604.921Z" fill="#225866"/>
<path d="M511.218 620.908C511.02 623.079 510.428 624.658 510.428 624.658H468.962C468.369 623.474 467.975 622.289 467.777 620.908C463.63 601.171 491.275 576.896 491.275 576.896L499.963 588.54C499.963 588.54 498.975 607.092 506.281 611.04C511.02 613.408 511.613 617.75 511.218 620.908Z" fill="#164353"/>
<path d="M467.975 620.908H511.218C511.02 623.079 510.428 624.658 510.428 624.658H468.962C468.764 623.276 468.369 622.092 467.975 620.908Z" fill="#225866"/>
<path d="M504.702 609.461C504.702 609.461 487.325 605.513 479.23 610.645V607.882C479.23 607.882 494.039 600.777 504.702 609.461Z" fill="#225866"/>
<path d="M501.148 605.119C501.148 605.119 490.09 599.987 479.23 605.119L480.414 602.158C480.612 602.158 493.447 597.224 501.148 605.119Z" fill="#225866"/>
<path d="M729.803 444.859C729.803 461.438 714.994 597.027 714.994 597.027C700.185 598.408 688.337 595.448 688.337 595.448C684.191 526.765 683.796 467.556 683.796 467.556L612.908 414.465L612.711 414.268C612.711 414.268 612.513 415.452 611.921 417.623C608.367 433.215 593.558 498.345 587.436 513.344C580.328 530.318 503.517 601.764 503.517 601.764C489.3 599.79 477.058 589.527 477.058 589.527C504.702 543.739 542.416 497.753 542.416 497.753C545.378 481.174 547.55 444.464 548.735 417.031C548.735 416.636 548.735 416.241 548.735 415.847C549.524 397.294 549.919 383.281 549.919 383.281L536.887 356.637L619.424 326.44L637.985 350.124C637.985 350.124 642.132 354.072 648.846 360.387C649.241 360.585 649.438 360.979 649.833 361.177C674.713 384.86 729.803 437.557 729.803 444.859Z" fill="#8BBDDB"/>
<path d="M548.932 417.425C548.932 417.031 548.932 416.636 548.932 416.241C566.309 406.768 563.347 391.768 563.347 391.571L564.334 391.373C564.531 391.571 567.691 407.755 548.932 417.425Z" fill="#6097B2"/>
<path d="M611.921 404.202C612.514 407.557 612.908 411.11 613.106 414.86L612.908 414.662C612.908 414.662 612.711 415.846 612.119 418.017C611.329 392.163 600.666 376.966 600.666 376.768L601.653 376.176C601.851 376.374 608.564 386.044 611.724 402.82C624.361 391.768 611.921 368.874 611.921 368.676L612.908 368.084C612.908 368.479 625.941 392.557 611.921 404.202Z" fill="#6097B2"/>
<path d="M650.031 361.374C649.438 361.571 648.846 361.769 648.253 361.769C642.132 361.769 632.062 353.282 631.469 352.887L632.259 352.098C635.616 354.861 644.897 361.571 649.241 360.585C649.438 360.782 649.636 361.177 650.031 361.374Z" fill="#6097B2"/>
<path d="M543.008 215.127C543.008 215.127 568.086 211.18 580.723 219.074C593.36 227.166 609.749 247.89 609.749 247.89C609.749 247.89 590.201 250.455 588.029 263.679C588.029 263.876 573.812 230.127 543.008 215.127Z" fill="#ADBEC4"/>
<path d="M505.294 228.35C494.631 234.074 476.86 255.587 476.07 268.81C475.281 281.639 484.758 293.678 491.275 303.744C511.415 335.322 532.543 363.15 541.626 400.057C541.626 400.255 587.634 418.61 641.54 353.677C641.54 353.677 611.131 312.625 600.469 277.691C596.125 263.481 591.78 248.482 583.487 235.85C574.404 222.035 558.805 213.943 542.811 215.324C529.384 216.311 515.759 222.627 505.294 228.35Z" fill="#CFD8DC"/>
<path d="M500.95 215.127C500.95 215.127 507.664 226.772 504.504 233.087C504.504 233.087 527.804 241.179 527.804 228.153C527.804 228.153 523.46 218.482 525.04 212.167L500.95 215.127Z" fill="#EF6E4B"/>
<path d="M552.684 294.467C552.684 294.467 539.652 298.217 536.492 302.757C533.136 307.296 530.371 317.559 530.371 317.559H552.684L556.83 309.862L561.767 299.599L552.684 294.467Z" fill="#EF6E4B"/>
<path d="M531.161 202.101C531.161 202.101 540.244 198.351 534.32 170.917C530.371 152.76 524.842 150.194 521.091 149.997C521.091 149.997 516.747 143.286 501.345 146.444C490.88 148.615 482.389 155.128 478.637 166.97C474.688 179.404 482.586 205.851 492.657 208.417L531.161 202.101Z" fill="#164353"/>
<path d="M533.333 183.549C533.333 183.549 539.059 175.654 541.231 183.351C543.798 192.43 535.9 197.562 533.728 194.996C531.753 192.43 533.333 183.549 533.333 183.549Z" fill="#FF8B66"/>
<path d="M485.351 192.035C485.351 192.035 477.452 186.312 477.847 194.404C478.44 203.877 487.523 206.246 488.51 202.89C489.695 199.733 485.351 192.035 485.351 192.035Z" fill="#FF8B66"/>
<path d="M515.562 221.048C530.766 218.482 537.677 207.233 532.741 177.431C530.174 162.036 520.893 153.944 503.714 156.707C486.733 159.47 481.007 170.128 483.574 185.522C489.103 217.495 499.765 223.614 515.562 221.048Z" fill="#FF8B66"/>
<path d="M490.485 195.193C490.485 196.772 492.064 198.154 494.039 198.154C496.014 198.154 497.593 196.97 497.593 195.391C497.593 193.812 496.014 192.43 494.039 192.43C492.064 192.43 490.485 193.614 490.485 195.193Z" fill="#DB614D"/>
<path d="M521.88 191.049C522.275 192.628 524.053 193.417 526.027 193.022C528.002 192.628 529.186 191.049 528.791 189.47C528.397 187.891 526.619 187.101 524.645 187.496C522.868 187.891 521.683 189.47 521.88 191.049Z" fill="#DB614D"/>
<path d="M494.829 178.615C494.631 178.615 494.434 178.615 494.434 178.417C494.039 178.22 494.039 177.628 494.236 177.431C496.408 174.273 500.555 173.681 500.753 173.681C501.147 173.681 501.542 173.878 501.542 174.273C501.542 174.667 501.345 175.062 500.95 175.062C500.95 175.062 497.198 175.654 495.421 178.22C495.224 178.615 495.026 178.615 494.829 178.615Z" fill="#1A4850"/>
<path d="M523.46 173.878C523.263 173.878 523.065 173.878 523.065 173.681C520.696 171.904 516.944 172.496 516.944 172.496C516.549 172.496 516.154 172.299 515.957 171.904C515.957 171.51 516.154 171.115 516.549 170.917C516.747 170.917 520.893 170.128 524.052 172.299C524.447 172.496 524.447 173.089 524.25 173.286C523.855 173.878 523.658 173.878 523.46 173.878Z" fill="#1A4850"/>
<path d="M497.593 186.509C497.988 188.483 498.975 189.864 499.963 189.667C500.95 189.47 501.542 187.891 501.345 185.917C500.95 183.943 499.963 182.562 498.975 182.759C497.791 182.957 497.198 184.733 497.593 186.509Z" fill="#1A4850"/>
<path d="M517.931 183.154C518.326 185.128 519.314 186.509 520.301 186.312C521.288 186.114 521.881 184.536 521.683 182.562C521.288 180.588 520.301 179.207 519.314 179.404C518.129 179.601 517.536 181.378 517.931 183.154Z" fill="#1A4850"/>
<path d="M523.658 200.325C523.658 200.325 510.428 203.877 503.122 202.496C503.122 202.496 508.256 208.811 515.364 207.035C522.67 205.061 523.658 200.325 523.658 200.325Z" fill="#1A4850"/>
<path d="M524.25 163.615C524.25 163.615 507.071 176.049 485.548 177.036L486.141 196.18C486.141 196.18 466 159.076 505.886 152.563C545.575 146.05 534.123 187.299 534.123 187.299C534.123 187.299 532.741 169.536 524.25 163.615Z" fill="#0E3944"/>
<path d="M510.23 195.193L510.033 193.614C510.033 193.614 512.402 193.417 512.995 192.035C513.192 191.443 512.205 189.667 511.415 187.891C510.23 185.522 508.651 182.759 508.058 179.601L509.638 179.207C510.23 182.167 511.613 184.93 512.797 187.101C513.982 189.47 514.969 191.246 514.377 192.628C513.587 194.996 510.23 195.193 510.23 195.193Z" fill="#DB614D"/>
<path d="M533.531 163.615C504.702 150.984 477.453 177.036 477.453 177.036C477.453 177.036 474.293 155.918 479.822 150.984C481.204 149.602 482.784 148.615 484.364 147.628C497.198 139.537 514.18 139.734 521.88 142.497C523.46 143.089 524.645 143.681 525.435 144.471C529.976 149.207 533.531 163.615 533.531 163.615Z" fill="#CE364C"/>
<path d="M529.976 158.878C529.976 158.878 505.689 154.141 483.179 169.141C483.179 169.141 481.797 155.523 484.364 147.628C497.198 139.537 514.18 139.734 521.88 142.497C526.422 147.628 529.976 158.878 529.976 158.878Z" fill="#CFD8DC"/>
<path d="M479.822 174.667C479.822 174.667 483.574 158.286 488.905 153.747C497.593 146.049 521.683 143.484 534.518 148.023C547.353 152.563 534.518 166.575 534.518 166.575C534.518 166.575 514.18 151.97 479.822 174.667Z" fill="#A02E44"/>
<path d="M517.339 283.02C517.339 283.02 527.212 298.415 544.193 307.493C544.193 307.493 565.321 289.139 592.768 290.717C592.768 290.717 570.06 331.572 550.512 336.111C540.244 338.48 503.122 314.006 503.122 314.006C503.122 314.006 510.428 288.152 517.339 283.02Z" fill="#FF8B66"/>
<path d="M480.809 255.192C489.892 240.39 510.823 262.297 517.931 277.889C525.04 293.481 530.174 296.836 530.174 296.836C530.174 296.836 509.243 305.52 509.441 321.309C509.441 321.309 460.866 287.56 480.809 255.192Z" fill="#ADBEC4"/>
<path d="M543.996 300.783C543.996 300.783 556.831 288.349 598.692 271.968L593.36 254.995C598.099 248.679 606.985 248.679 606.985 248.679C606.985 248.679 628.508 279.073 624.756 287.955C622.386 293.678 577.564 299.599 543.996 300.783Z" fill="#EF6E4B"/>
<path d="M590.003 276.113C590.003 276.113 590.398 274.336 591.978 272.165C593.558 269.994 593.163 266.047 593.755 264.863C594.347 263.679 597.704 258.547 599.876 257.56C602.048 256.573 605.01 254.995 605.603 257.758C606.195 260.521 601.653 259.731 599.679 263.679C599.679 263.679 604.22 262.297 607.577 263.087C611.131 263.876 612.119 267.231 607.774 267.034C604.22 267.034 599.876 269.402 599.876 269.402C599.876 269.402 604.418 269.994 603.628 272.165C602.246 274.928 596.717 273.152 590.003 276.113Z" fill="#FF8B66"/>
<path d="M279.995 333.151C283.747 342.822 299.148 359.203 299.148 359.203C299.148 359.203 336.665 336.703 353.844 346.177C371.22 355.65 384.845 361.374 396.1 357.229C407.355 353.085 359.175 265.652 359.175 265.652L296.779 241.771C296.779 241.771 295.397 257.56 288.288 260.324C281.18 263.087 273.479 289.139 274.071 294.073C274.664 299.204 279.995 333.151 279.995 333.151Z" fill="#3E6575"/>
<path d="M350.29 359.598C350.29 359.598 334.296 391.176 300.925 431.438C300.925 431.438 297.569 479.398 209.7 554.988L200.419 547.686C200.419 547.686 252.746 465.78 263.211 440.714C273.676 415.649 257.485 392.557 305.467 329.203L350.29 359.598Z" fill="#EF6E4B"/>
<path d="M298.951 303.941C285.129 330.388 280.39 364.334 280.39 364.334L274.071 380.321C274.071 380.321 296.384 392.36 322.251 396.702L332.519 369.269L298.951 303.941Z" fill="#662C33"/>
<path d="M371.22 357.229C371.22 357.229 378.131 391.965 376.947 444.07C376.947 444.07 403.998 483.937 381.686 597.422H370.036C370.036 597.422 360.558 500.713 353.252 474.661C345.946 448.412 318.894 440.517 317.512 360.782L371.22 357.229Z" fill="#FF8B66"/>
<path d="M378.131 394.334C378.131 394.334 356.214 398.281 317.314 396.505L316.722 392.163L316.525 390.978L312.575 362.755C312.575 362.755 308.824 358.216 305.072 350.716C304.677 349.927 304.085 348.94 303.69 347.953C298.556 336.901 293.817 320.717 298.951 303.941L307.047 304.336H308.231L335.678 305.52H336.863L345.946 305.915H347.328L353.252 306.112C353.252 306.112 382.87 332.756 377.539 382.097L377.934 389.005V390.189L378.131 394.334Z" fill="#8B383E"/>
<path d="M308.231 304.336C307.442 306.507 302.308 323.283 304.875 350.716C304.48 349.927 303.887 348.94 303.492 347.953C301.518 322.888 306.059 307.296 307.047 304.138C307.244 303.744 307.244 303.546 307.244 303.546L308.231 303.941C308.429 304.138 308.429 304.138 308.231 304.336Z" fill="#662C33"/>
<path d="M377.934 390.386C370.233 392.36 357.003 392.952 344.366 392.952C333.111 392.952 322.448 392.557 316.722 392.163L316.525 390.979C326.397 391.373 352.264 392.557 369.048 390.584L368.061 373.018C368.258 352.493 362.137 334.927 356.016 322.691C340.812 319.927 336.665 308.678 335.678 305.52C335.48 304.928 335.48 304.73 335.48 304.73L336.468 304.533C336.468 304.533 336.468 304.928 336.665 305.52C337.652 308.875 341.799 318.546 355.226 321.309C351.08 313.414 347.328 307.888 345.748 305.915C345.353 305.322 344.958 304.928 344.958 304.928L345.748 304.138C345.748 304.138 346.341 304.73 347.13 305.915C352.264 312.822 369.443 338.874 368.851 372.821L369.838 390.386C372.8 389.992 375.367 389.597 377.539 389.005L377.934 390.386Z" fill="#662C33"/>
<path d="M321.856 185.128C313.168 180.391 250.179 205.061 250.179 205.061C250.179 205.061 240.898 221.64 246.625 228.153C252.351 234.666 273.084 231.706 279.205 228.153C285.524 224.601 302.11 221.837 302.11 221.837L321.856 185.128Z" fill="#8BBDDB"/>
<path d="M377.342 132.629C377.342 132.629 390.374 137.563 395.113 152.563C399.852 167.562 385.635 205.456 390.571 222.824C395.508 240.192 394.718 273.152 379.316 280.06C363.914 286.968 332.519 274.534 325.805 255.587C319.091 236.64 322.053 164.602 334.888 140.129C348.118 115.853 374.38 128.089 377.342 132.629Z" fill="#F24052"/>
<path d="M362.532 197.167C365.889 200.917 374.775 194.206 374.775 194.206C374.775 194.206 374.577 226.772 365.099 229.337C355.621 231.903 331.334 203.68 332.321 195.983C333.308 188.483 354.831 189.075 362.532 197.167Z" fill="#8BBDDB"/>
<path d="M326.003 189.075C326.003 189.075 335.678 197.167 352.264 201.114C369.048 205.061 378.131 197.167 386.622 207.825C399.457 224.008 378.526 253.81 367.666 269.205C363.519 274.928 354.831 290.915 353.252 306.309C353.252 306.309 324.225 314.796 299.148 303.744L297.371 268.218C297.174 268.415 281.377 220.456 326.003 189.075Z" fill="#0E3944"/>
<path d="M356.016 223.614C356.016 223.614 369.246 192.035 373.195 190.062C376.947 188.088 386.819 192.825 388.794 197.167C390.769 201.509 388.794 210.982 388.794 210.982C388.794 210.982 378.131 199.141 356.016 223.614Z" fill="#8BBDDB"/>
<path d="M419.4 357.229C413.279 369.663 398.667 373.018 398.667 373.018C398.667 373.018 397.482 371.242 395.705 368.282C395.508 367.887 395.31 367.69 395.113 367.295C383.463 348.348 347.92 288.152 348.513 256.573C349.302 219.074 373.787 198.548 373.787 198.548C386.227 201.509 390.176 204.864 390.176 204.864C390.176 204.864 394.323 226.179 390.571 251.837C386.819 277.494 379.711 284.204 383.265 286.178C386.819 288.152 383.265 291.902 383.265 291.902C383.265 291.902 403.801 320.717 407.75 329.598C410.317 335.519 414.464 345.387 417.228 351.506C417.425 351.9 417.623 352.295 417.82 352.69C418.61 355.453 419.4 357.229 419.4 357.229Z" fill="#6097B2"/>
<path d="M383.66 204.864C383.66 204.864 368.851 215.719 377.539 232.495L418.413 274.928C395.903 298.809 393.731 308.678 377.539 319.73L383.66 329.204C383.66 329.204 440.528 285.586 440.725 274.928C440.528 270.389 405.775 215.324 383.66 204.864Z" fill="#FF8B66"/>
<path d="M376.552 319.73C376.552 319.73 368.653 320.52 363.914 321.901C358.978 323.085 352.462 324.269 352.264 325.454C352.067 326.44 363.125 325.454 363.125 325.454C363.125 325.454 354.042 329.204 353.844 330.585C353.647 331.967 365.297 329.598 365.297 329.598C365.297 329.598 357.991 334.138 358.386 335.322C358.781 336.506 367.864 333.546 367.864 333.546C367.864 333.546 366.086 337.888 364.507 339.861C364.507 339.861 366.284 340.848 369.838 336.901C373.392 332.953 379.119 334.138 383.66 330.782C388.004 326.835 380.698 319.138 376.552 319.73Z" fill="#FF8B66"/>
<path d="M334.691 194.404C334.691 194.404 323.436 201.706 316.327 219.272C309.219 236.837 286.906 269.797 281.575 278.284C276.243 286.77 279.995 333.151 279.995 333.151C279.995 333.151 273.479 305.125 270.517 294.073C267.555 283.02 279.995 255.981 281.772 254.6C283.549 253.218 293.225 255.784 291.25 244.732C289.275 233.679 314.945 186.312 321.658 185.128C321.856 185.128 332.716 187.101 334.691 194.404Z" fill="#6097B2"/>
<path d="M299.938 196.772C299.741 197.167 299.543 197.562 299.346 197.956C296.779 201.706 292.04 204.469 292.04 204.469C292.04 204.469 283.549 216.509 283.352 217.89C283.352 219.074 268.542 229.732 261.829 229.535C260.842 229.535 260.249 229.337 259.657 228.745C255.708 224.995 272.886 194.206 276.638 187.496C276.836 187.101 277.033 186.707 277.231 186.509C277.231 186.312 277.428 186.312 277.428 186.312C277.428 186.312 274.466 175.062 287.103 177.233C297.569 179.009 299.741 187.299 300.728 192.825C300.925 194.009 300.728 195.391 299.938 196.772Z" fill="#6097B2"/>
<path d="M255.905 208.417C264.593 196.969 295.199 174.865 311.193 168.352L315.142 175.851C315.142 175.851 284.142 203.088 276.836 214.732C269.53 226.377 260.447 231.311 251.956 227.364C243.268 223.614 254.128 210.785 255.905 208.417Z" fill="#FF8B66"/>
<path d="M296.976 194.404L295.397 196.377L294.607 197.364L291.842 200.522C291.842 200.522 284.931 208.811 285.326 212.167C285.524 214.535 272.294 225.193 262.026 229.732C257.88 231.508 254.128 232.298 251.956 231.114C244.453 226.772 246.23 213.943 250.376 205.259C254.128 197.562 270.319 187.891 274.466 185.325C275.058 184.93 275.256 184.733 275.453 184.733L277.033 178.615C277.033 178.615 282.759 175.259 287.103 177.233C287.103 177.233 277.23 177.628 278.81 181.575C280.587 185.128 294.212 194.206 296.976 194.404Z" fill="#8BBDDB"/>
<path d="M332.716 162.825C322.843 166.97 324.225 175.852 315.142 175.852C309.416 175.852 308.824 169.339 308.824 169.339C311.391 163.812 312.97 154.536 313.365 149.997C313.76 145.457 315.142 147.234 315.142 147.234C315.142 146.839 315.142 146.444 315.142 146.05C314.945 143.089 314.55 140.918 316.525 142.102C318.697 143.484 319.486 151.97 319.486 151.97C321.264 139.537 318.499 137.76 320.671 138.747C323.633 140.326 323.633 151.181 323.633 151.576C326.003 144.273 325.41 140.326 326.99 141.905C328.569 143.484 326.2 156.707 325.213 161.641C325.015 162.825 324.818 163.418 324.818 163.418C332.716 159.668 332.716 162.825 332.716 162.825Z" fill="#FF8B66"/>
<path d="M325.213 161.839C325.015 163.023 324.818 163.615 324.818 163.615C324.818 163.615 321.264 163.22 318.499 167.168C318.499 167.168 319.289 161.839 325.213 161.839Z" fill="#EF6E4B"/>
<path d="M315.735 156.115C315.735 155.128 316.327 149.01 315.142 147.234C315.142 146.839 315.142 146.444 315.142 146.05C317.314 146.642 315.932 154.931 315.735 156.115Z" fill="#EF6E4B"/>
<path d="M321.856 208.417C321.856 208.417 328.569 190.259 330.741 186.114C332.914 181.97 343.971 182.759 352.462 184.338C360.953 185.917 362.532 197.167 362.532 197.167C362.532 197.167 336.863 185.128 321.856 208.417Z" fill="#8BBDDB"/>
<path d="M365.099 172.694C365.099 172.694 357.003 187.496 357.201 204.075C357.201 204.075 344.169 212.956 339.43 201.904C339.43 201.904 344.366 187.299 341.997 167.76C340.417 154.339 365.099 172.694 365.099 172.694Z" fill="#EF6E4B"/>
<path d="M339.43 152.168C339.43 152.168 337.06 143.681 332.716 149.602C327.78 156.51 332.716 163.22 335.48 161.641C338.047 160.063 339.43 152.168 339.43 152.168Z" fill="#FF8B66"/>
<path d="M377.342 173.878C377.342 173.878 385.832 171.51 382.87 178.22C379.514 186.115 371.22 185.128 371.22 182.167C371.22 179.207 377.342 173.878 377.342 173.878Z" fill="#FF8B66"/>
<path d="M342.984 189.272C330.939 182.562 328.57 170.72 341.799 147.036C348.71 134.8 359.175 130.853 372.603 138.352C386.227 146.05 387.609 156.707 380.698 168.944C366.481 194.404 355.424 196.18 342.984 189.272Z" fill="#FF8B66"/>
<path d="M372.01 175.062C371.615 176.444 369.838 177.036 368.061 176.444C366.481 175.852 365.494 174.273 365.889 172.891C366.284 171.51 368.061 170.918 369.838 171.51C371.615 172.299 372.603 173.681 372.01 175.062Z" fill="#DB614D"/>
<path d="M346.736 161.839C345.946 163.023 344.169 163.22 342.589 162.234C341.009 161.247 340.614 159.47 341.207 158.286C341.997 157.102 343.774 156.905 345.353 157.892C346.933 158.878 347.525 160.655 346.736 161.839Z" fill="#DB614D"/>
<path d="M373.787 159.865C373.392 159.865 373.195 159.668 373.195 159.273C372.603 156.51 369.443 154.931 369.443 154.931C369.048 154.734 369.048 154.339 369.246 153.944C369.443 153.549 369.838 153.549 370.233 153.747C370.431 153.747 373.787 155.72 374.577 158.878C374.577 159.273 374.38 159.668 373.787 159.865Z" fill="#1A4850"/>
<path d="M357.201 148.023C357.003 148.023 357.003 148.023 356.806 147.826C356.806 147.826 353.844 146.05 351.277 146.839C350.882 147.036 350.487 146.839 350.487 146.444C350.29 146.05 350.487 145.655 350.882 145.655C354.042 144.668 357.398 146.642 357.596 146.642C357.991 146.839 357.991 147.234 357.793 147.628C357.596 147.826 357.398 148.023 357.201 148.023Z" fill="#1A4850"/>
<path d="M368.851 165.589C368.061 167.168 366.679 167.957 365.889 167.365C365.099 166.97 365.099 165.391 365.889 163.813C366.679 162.234 368.061 161.444 368.851 162.036C369.641 162.431 369.641 164.01 368.851 165.589Z" fill="#1A4850"/>
<path d="M351.87 156.51C351.08 158.089 349.697 158.878 348.908 158.286C348.118 157.891 348.118 156.313 348.908 154.734C349.697 153.155 351.08 152.365 351.87 152.957C352.659 153.352 352.659 154.931 351.87 156.51Z" fill="#1A4850"/>
<path d="M345.946 171.904C345.946 171.904 352.857 177.233 357.991 177.431C357.991 177.431 352.659 181.773 348.908 179.01C344.958 176.049 345.946 171.904 345.946 171.904Z" fill="#1A4850"/>
<path d="M365.099 162.431C365.099 162.431 368.258 159.273 369.641 160.457C371.023 161.444 370.233 165.391 370.233 165.391H372.997L370.628 164.404C370.628 164.404 371.418 160.457 370.036 159.668C368.061 158.681 365.099 162.431 365.099 162.431Z" fill="#1A4850"/>
<path d="M353.054 156.312C353.054 156.312 354.041 151.97 352.462 151.378C350.882 150.786 347.92 153.352 347.92 153.352L346.341 150.984L348.315 152.563C348.315 152.563 351.277 149.799 352.659 150.786C355.029 151.773 353.054 156.312 353.054 156.312Z" fill="#1A4850"/>
<path d="M375.959 143.484C375.959 143.484 371.615 137.366 365.692 142.3C359.768 147.036 346.143 154.734 339.627 152.168C332.914 149.602 354.239 121.379 372.603 129.668C390.966 137.958 389.386 164.997 381.686 173.483C373.985 181.97 377.736 174.075 377.736 174.075C377.736 174.075 378.329 161.839 380.896 153.944C383.068 145.655 375.959 143.484 375.959 143.484Z" fill="#F24052"/>
<path d="M355.424 169.141C355.029 169.141 354.831 169.141 354.436 168.944L354.831 167.562C356.016 167.957 356.609 167.365 357.003 166.773C357.398 165.983 357.398 165.194 357.003 164.799C356.806 164.602 356.411 164.602 356.016 164.799L355.226 163.418C356.806 162.628 357.596 163.22 357.991 163.615C358.781 164.404 358.978 166.181 358.188 167.365C357.596 168.549 356.609 169.141 355.424 169.141Z" fill="#DB614D"/>
<path d="M444.082 273.152C443.292 283.81 417.031 318.348 412.686 319.533C411.502 319.927 410.317 320.52 409.33 321.309C408.935 321.704 408.342 321.901 407.947 322.296C405.381 324.269 403.603 326.638 403.603 326.638C395.903 326.046 374.38 316.177 381.291 314.006C381.686 313.809 382.08 313.612 382.673 313.217C382.87 313.02 383.265 312.822 383.66 312.428C391.756 305.52 407.75 277.889 407.75 275.718C407.75 273.349 410.514 272.955 410.514 272.955C410.514 272.955 395.508 251.047 386.819 248.284C378.131 245.718 373.787 235.061 373.787 235.061C365.297 198.746 390.176 204.469 390.176 204.469C408.54 215.916 444.872 262.494 444.082 273.152Z" fill="#8BBDDB"/>
<path d="M409.33 321.309C408.935 321.704 408.342 321.901 407.947 322.296C396.1 321.506 386.227 315.783 382.673 313.217C382.87 313.02 383.265 312.822 383.66 312.428C387.412 315.191 397.482 320.914 409.33 321.309Z" fill="#3E6575"/>
<path d="M299.938 196.772C299.741 197.167 299.543 197.562 299.346 197.956C297.569 197.956 295.989 197.759 294.607 197.364C286.906 195.785 280.785 191.443 276.836 187.693C275.848 186.904 275.058 185.917 274.466 185.128C275.058 184.733 275.256 184.536 275.453 184.536C276.046 185.128 276.638 185.917 277.428 186.509C281.377 190.259 287.498 194.799 295.397 196.18C296.779 196.575 298.358 196.772 299.938 196.772Z" fill="#3E6575"/>
<path d="M417.623 352.887C414.069 359.006 407.355 366.308 395.705 368.282C395.508 367.887 395.31 367.69 395.113 367.295C407.158 365.519 413.674 357.624 417.228 351.703C417.228 352.098 417.425 352.493 417.623 352.887Z" fill="#3E6575"/>
<path d="M217.993 552.225C217.993 552.225 215.229 554.988 212.464 559.922C209.7 564.857 212.662 569.396 199.037 580.843C199.037 580.843 171.196 564.659 158.558 543.541C158.558 543.541 158.756 537.62 164.877 536.239C168.234 535.449 177.119 539.791 185.808 541.37C186.992 541.568 188.177 541.765 189.559 541.962C191.139 542.16 192.521 542.16 193.903 541.962C195.286 541.765 196.47 541.568 197.655 540.976C200.617 539.791 202.986 537.423 204.171 533.278C204.171 533.278 211.477 537.423 206.541 544.528C206.541 544.528 215.229 540.778 217.993 552.225Z" fill="#CFD8DC"/>
<path d="M199.037 580.843C199.037 580.843 171.196 564.659 158.558 543.541C158.558 543.541 163.297 542.554 167.049 549.462C170.998 556.567 201.209 572.356 199.037 580.843Z" fill="#ADBEC4"/>
<path d="M199.037 548.081C196.865 551.633 196.865 545.12 193.903 541.962C195.286 541.765 196.47 541.567 197.655 540.975C199.037 542.357 200.814 545.12 199.037 548.081Z" fill="#ADBEC4"/>
<path d="M190.349 548.278C187.98 550.449 187.19 544.725 185.808 541.568C186.992 541.765 188.177 541.962 189.559 542.16C190.744 543.739 192.126 546.502 190.349 548.278Z" fill="#ADBEC4"/>
<path d="M389.189 624.461H349.895C349.895 624.461 348.315 618.934 349.895 613.013C350.685 610.448 354.634 607.882 358.386 604.527C359.373 603.54 360.36 602.553 361.347 601.566C362.137 600.777 362.73 599.79 363.322 598.606C364.112 597.422 364.704 596.04 364.902 594.461C365.494 591.501 365.297 587.948 363.519 583.803C363.519 583.803 376.947 581.04 381.686 588.343C381.686 588.343 382.08 584.988 386.425 587.159C386.425 587.159 385.832 593.869 386.622 599.593C387.609 605.316 392.941 606.895 389.189 624.461Z" fill="#CFD8DC"/>
<path d="M378.921 600.777C378.526 601.171 378.131 601.369 377.539 601.369C377.144 601.369 376.749 601.171 376.354 600.974C374.38 599.395 369.838 596.829 363.322 598.606C364.112 597.422 364.704 596.04 364.902 594.461C367.469 593.474 372.405 592.882 378.526 598.211C379.514 598.803 379.711 599.987 378.921 600.777Z" fill="#ADBEC4"/>
<path d="M375.762 607.29L375.564 607.685C374.972 608.474 373.985 608.671 373.195 608.277C370.43 606.698 364.507 603.737 358.583 604.527C359.57 603.54 360.558 602.553 361.545 601.566C364.507 600.974 370.036 600.579 375.367 604.921C375.959 605.514 376.157 606.5 375.762 607.29Z" fill="#ADBEC4"/>
</g>
<defs>
<clipPath id="clip0">
<rect width="932" height="629" fill="white"/>
</clipPath>
</defs>
</svg>
